<svg width="828" height="187" viewBox="0 0 828 187" fill="none" xmlns="http://www.w3.org/2000/svg">
<path d="M318.667 1.39998C318.667 2.06665 313.067 6.33332 306.133 11C299.2 15.6667 293.867 20.0667 294.267 20.7333C294.667 21.5333 294.4 21.6666 293.733 21.2666C292.4 20.3333 278.267 29.8 259.2 44.2L250.267 51H282.533H314.667V57V63H279.333H244V70.6V78.3333L279.333 77.9333L314.667 77.5333V83.6667V89.6667L281.733 89.8C263.467 89.9333 247.6 89.9333 246.4 89.8C244.4 89.5333 244 90.7333 244 97.5333V105.667H279.333H314.667V111.667V117.667H273.333H232L231.733 91.5333L231.333 65.2666L218 76.0667C210.667 82.0667 204.667 87.6667 204.667 88.6C204.533 89.5333 203.733 90.2 202.8 89.9333C201.333 89.6667 184 104.067 166 120.733L158 128.2L303.067 128.333C384.4 128.333 448 128.867 448 129.533C448 130.067 443.6 131 438.4 131.533C403.6 134.733 299.867 146.067 229.333 154.467C130.267 166.2 31.3333 180.067 2.93332 186.333C-2.13335 187.533 -0.266682 185.267 8.66665 179.133C13.3333 175.933 16.9333 172.733 16.4 171.933C16 171.133 16.2667 171 17.0667 171.533C17.8667 171.933 24.9333 167.667 32.9333 161.933C40.8 156.2 57.3333 144.467 69.7333 135.8C82.8 126.6 91.7333 119.533 91.2 118.733C90.6667 117.8 90.9333 117.667 91.7333 118.2C93.4667 119.267 100.267 115.267 99.3333 113.667C98.9333 113.133 99.4667 112.733 100.4 112.867C102.8 113.133 149.467 80.3333 148.667 78.8667C148.133 78.2 148.933 78.0667 150.133 78.6C151.733 79.1333 152.133 79 151.467 77.8C150.933 77 151.067 76.4667 151.867 76.6C152.667 76.8667 164.667 69.5333 178.667 60.3333C199.467 46.6 203.467 43.5333 200.933 42.8667C199.333 42.4667 169.467 41.6666 134.667 41.1333C74.9333 40.3333 40.6667 39.2667 41.7333 38.0667C42 37.8 56.6667 36.2 74.2667 34.3333C183.867 23.1333 283.867 9.79998 308.667 3.13332C313.867 1.79998 318.133 0.599978 318.4 0.466644C318.533 0.466644 318.667 0.866645 318.667 1.39998Z" fill="white"/>
<path d="M406.667 57V63H388.667H370.667V90.3333V117.667H364.667H358.667V90.3333V63H341.333H324V57V51H365.333H406.667V57Z" fill="white"/>
<path d="M466.133 117L459.6 105.933L453.2 95H434.667H416.133L409.733 106.333L403.333 117.667H396.8C391.2 117.667 390.533 117.4 391.333 115.267C392.133 113 414.4 74.0667 423.6 58.6L428.133 51H435.067L442 51.1333L479.5 117H466.133Z" fill="white"/>
<path d="M542 57V62.3333L524.4 62.7333L506.667 63.1333V90.3333V117.667H500.667H494.667V90.3333V63.1333L477.067 62.7333L459.333 62.3333L458.933 58.6C458 50.6 456.267 50.8666 500.933 51.2666L542 51.6667V57Z" fill="white"/>
<path d="M634.667 57V63H599.333H564V70.6V78.3333H598.933H634L634.4 83.9333L634.8 89.6667H599.467H564V97.6667V105.667H599.333H634.667V111.667V117.667H593.333H552V84.3333V51H593.333H634.667V57Z" fill="white"/>
<path d="M730.4 57.2666L730.8 63L695.067 63.2666L659.333 63.6667V84.3333V105L694.667 105.667L730 106.333L730.4 111.933L730.8 117.667H693.467H656L652 113.933L647.867 110.333L647.6 84.6L647.333 58.7333L651.733 54.8667L656.133 51L693.067 51.2666L730 51.6667L730.4 57.2666Z" fill="white"/>
<path d="M756.667 60.6C757.2 65.9333 757.333 71.8 757.067 73.6667C756.933 75.5333 757.067 77.1333 757.733 77.2667C758.267 77.5333 771.467 77.6667 787.067 77.6667H815.333L814.933 67.6667C814.667 62.2 814.8 56.2 815.2 54.2C816 51.1333 816.667 50.8666 821.733 51.2666L827.333 51.6667V84.3333V117H821.333H815.467L815.733 105C815.867 98.3333 815.6 92.2 814.933 91.2667C814.133 90.0667 807.2 89.6667 785.2 89.9333L756.667 90.3333L756.267 103.933L755.867 117.667H750H744V84.3333V51H749.867H755.733L756.667 60.6Z" fill="white"/>
</svg>
